<svg width="291" height="10" viewBox="0 0 291 10" fill="none" xmlns="http://www.w3.org/2000/svg">
<path d="M5.14648 2.56534H6.41637C6.37802 1.16761 5.14222 0.153409 3.3695 0.153409C1.61808 0.153409 0.275746 1.15483 0.275746 2.65909C0.275746 3.87358 1.14506 4.58523 2.54705 4.96449L3.5783 5.24574C4.51154 5.4929 5.23171 5.79972 5.23171 6.57528C5.23171 7.42756 4.41779 7.99006 3.29705 7.99006C2.28285 7.99006 1.4391 7.53835 1.36239 6.58807H0.0413708C0.126598 8.16903 1.34961 9.14489 3.30558 9.14489C5.35529 9.14489 6.53569 8.06676 6.53569 6.58807C6.53569 5.01562 5.1337 4.40625 4.02575 4.13352L3.17347 3.91193C2.49165 3.73722 1.58398 3.41761 1.58825 2.58239C1.58825 1.84091 2.2658 1.29119 3.33967 1.29119C4.34109 1.29119 5.05273 1.75994 5.14648 2.56534ZM14.426 0.272727H13.1092V9H14.426V0.272727ZM27.2498 3.02983H28.6007C28.3066 1.32955 26.8535 0.153409 24.97 0.153409C22.7115 0.153409 21.0623 1.85369 21.0623 4.64062C21.0623 7.40199 22.6646 9.11932 25.0297 9.11932C27.1476 9.11932 28.6603 7.73011 28.6603 5.52699V4.53409H25.2299V5.62074H27.3862C27.3564 7.02699 26.4274 7.91761 25.0297 7.91761C23.4913 7.91761 22.3706 6.75426 22.3706 4.6321C22.3706 2.51847 23.4998 1.35511 24.9785 1.35511C26.1376 1.35511 26.9217 1.99432 27.2498 3.02983ZM42.3759 0.272727H41.0719V6.68182H40.9909L36.5506 0.272727H35.3319V9H36.6486V2.59943H36.7296L41.1657 9H42.3759V0.272727ZM50.6135 0.272727H49.2967V9H50.6135V0.272727ZM64.5751 0.272727H63.2711V6.68182H63.1902L58.7498 0.272727H57.5311V9H58.8478V2.59943H58.9288L63.3649 9H64.5751V0.272727ZM77.4022 3.02983H78.753C78.459 1.32955 77.0059 0.153409 75.1223 0.153409C72.8638 0.153409 71.2147 1.85369 71.2147 4.64062C71.2147 7.40199 72.8169 9.11932 75.182 9.11932C77.2999 9.11932 78.8127 7.73011 78.8127 5.52699V4.53409H75.3823V5.62074H77.5385C77.5087 7.02699 76.5797 7.91761 75.182 7.91761C73.6436 7.91761 72.5229 6.75426 72.5229 4.6321C72.5229 2.51847 73.6522 1.35511 75.1309 1.35511C76.29 1.35511 77.074 1.99432 77.4022 3.02983ZM99.2765 0.272727V6.02557C99.2765 7.24858 98.3006 7.93466 97.1245 7.93466C95.9569 7.93466 94.9767 7.24858 94.9767 6.02557V0.272727H93.66V6.04688C93.66 8.01562 95.1941 9.14489 97.1245 9.14489C99.0549 9.14489 100.593 8.01562 100.593 6.04688V0.272727H99.2765ZM107.508 9H108.824V5.93182H110.614C112.638 5.93182 113.64 4.70881 113.64 3.09801C113.64 1.49148 112.647 0.272727 110.618 0.272727H107.508V9ZM108.824 4.81534V1.40199H110.478C111.782 1.40199 112.314 2.10938 112.314 3.09801C112.314 4.08665 111.782 4.81534 110.495 4.81534H108.824ZM129.096 9L129.898 6.69034H133.307L134.104 9H135.501L132.361 0.272727H130.839L127.699 9H129.096ZM130.281 5.58239L131.568 1.85795H131.636L132.923 5.58239H130.281ZM156.981 0.272727H155.677V6.68182H155.596L151.156 0.272727H149.937V9H151.254V2.59943H151.335L155.771 9H156.981V0.272727ZM163.902 9H169.425V7.86648H165.219V5.1946H169.088V4.06534H165.219V1.40625H169.374V0.272727H163.902V9ZM177.841 9H179.171L181.008 2.46307H181.076L182.912 9H184.238L186.662 0.272727H185.273L183.577 7.03551H183.496L181.728 0.272727H180.356L178.587 7.03125H178.506L176.806 0.272727H175.421L177.841 9ZM201.776 9L202.577 6.69034H205.986L206.783 9H208.181L205.04 0.272727H203.519L200.378 9H201.776ZM202.961 5.58239L204.248 1.85795H204.316L205.603 5.58239H202.961ZM221.28 3.1108C220.981 1.24432 219.52 0.153409 217.675 0.153409C215.416 0.153409 213.75 1.84517 213.75 4.63636C213.75 7.42756 215.407 9.11932 217.675 9.11932C219.592 9.11932 220.994 7.91761 221.28 6.19176L219.95 6.1875C219.724 7.30398 218.787 7.91761 217.683 7.91761C216.187 7.91761 215.058 6.77131 215.058 4.63636C215.058 2.51847 216.183 1.35511 217.687 1.35511C218.8 1.35511 219.733 1.98153 219.95 3.1108H221.28ZM235.104 3.1108C234.806 1.24432 233.344 0.153409 231.499 0.153409C229.24 0.153409 227.574 1.84517 227.574 4.63636C227.574 7.42756 229.232 9.11932 231.499 9.11932C233.416 9.11932 234.818 7.91761 235.104 6.19176L233.774 6.1875C233.548 7.30398 232.611 7.91761 231.507 7.91761C230.012 7.91761 228.882 6.77131 228.882 4.63636C228.882 2.51847 230.007 1.35511 231.512 1.35511C232.624 1.35511 233.557 1.98153 233.774 3.1108H235.104ZM249.26 4.63636C249.26 1.84517 247.59 0.153409 245.331 0.153409C243.064 0.153409 241.398 1.84517 241.398 4.63636C241.398 7.4233 243.064 9.11932 245.331 9.11932C247.59 9.11932 249.26 7.42756 249.26 4.63636ZM247.956 4.63636C247.956 6.76278 246.831 7.91761 245.331 7.91761C243.827 7.91761 242.706 6.76278 242.706 4.63636C242.706 2.50994 243.827 1.35511 245.331 1.35511C246.831 1.35511 247.956 2.50994 247.956 4.63636ZM261.519 0.272727V6.02557C261.519 7.24858 260.543 7.93466 259.367 7.93466C258.199 7.93466 257.219 7.24858 257.219 6.02557V0.272727H255.902V6.04688C255.902 8.01562 257.436 9.14489 259.367 9.14489C261.297 9.14489 262.835 8.01562 262.835 6.04688V0.272727H261.519ZM276.794 0.272727H275.49V6.68182H275.409L270.969 0.272727H269.75V9H271.067V2.59943H271.148L275.584 9H276.794V0.272727ZM283.284 1.40625H286.003V9H287.316V1.40625H290.039V0.272727H283.284V1.40625Z" fill="#4C84FF"/>
</svg>
