<svg width="293" height="34" viewBox="0 0 293 34" fill="none" xmlns="http://www.w3.org/2000/svg">
<path d="M0.854581 1.40625H3.57333V9H4.88583V1.40625H7.60884V0.272727H0.854581V1.40625ZM15.1014 9H16.4181V5.1946H20.769V9H22.09V0.272727H20.769V4.06534H16.4181V0.272727H15.1014V9ZM30.0076 9H35.5304V7.86648H31.3244V5.1946H35.1937V4.06534H31.3244V1.40625H35.4792V0.272727H30.0076V9ZM59.9949 4.63636C59.9949 1.84517 58.3244 0.153409 56.0659 0.153409C53.7988 0.153409 52.1326 1.84517 52.1326 4.63636C52.1326 7.4233 53.7988 9.11932 56.0659 9.11932C58.3244 9.11932 59.9949 7.42756 59.9949 4.63636ZM58.6909 4.63636C58.6909 6.76278 57.5659 7.91761 56.0659 7.91761C54.5616 7.91761 53.4409 6.76278 53.4409 4.63636C53.4409 2.50994 54.5616 1.35511 56.0659 1.35511C57.5659 1.35511 58.6909 2.50994 58.6909 4.63636ZM67.6365 9H68.9533V5.93182H70.7431C72.7672 5.93182 73.7686 4.70881 73.7686 3.09801C73.7686 1.49148 72.7757 0.272727 70.7473 0.272727H67.6365V9ZM68.9533 4.81534V1.40199H70.6067C71.9107 1.40199 72.4434 2.10938 72.4434 3.09801C72.4434 4.08665 71.9107 4.81534 70.6238 4.81534H68.9533ZM80.8819 1.40625H83.6007V9H84.9132V1.40625H87.6362V0.272727H80.8819V1.40625ZM96.4455 0.272727H95.1287V9H96.4455V0.272727ZM104.363 0.272727V9H105.616V2.6804H105.697L108.271 8.98722H109.311L111.884 2.68466H111.965V9H113.218V0.272727H111.62L108.842 7.05682H108.74L105.961 0.272727H104.363ZM122.449 0.272727H121.133V9H122.449V0.272727ZM130.141 9H136.38V7.86648H131.752L136.341 1.15057V0.272727H130.103V1.40625H134.731L130.141 8.12216V9ZM144.031 9H149.554V7.86648H145.348V5.1946H149.217V4.06534H145.348V1.40625H149.503V0.272727H144.031V9ZM160.087 9C162.746 9 164.284 7.35085 164.284 4.62358C164.284 1.90909 162.746 0.272727 160.176 0.272727H157.262V9H160.087ZM158.578 7.84943V1.4233H160.095C162.004 1.4233 162.989 2.56534 162.989 4.62358C162.989 6.69034 162.004 7.84943 160.014 7.84943H158.578ZM182.806 9H184.136L185.972 2.46307H186.041L187.877 9H189.203L191.627 0.272727H190.238L188.542 7.03551H188.461L186.693 0.272727H185.32L183.552 7.03125H183.471L181.771 0.272727H180.386L182.806 9ZM205.975 4.63636C205.975 1.84517 204.305 0.153409 202.046 0.153409C199.779 0.153409 198.113 1.84517 198.113 4.63636C198.113 7.4233 199.779 9.11932 202.046 9.11932C204.305 9.11932 205.975 7.42756 205.975 4.63636ZM204.671 4.63636C204.671 6.76278 203.546 7.91761 202.046 7.91761C200.542 7.91761 199.421 6.76278 199.421 4.63636C199.421 2.50994 200.542 1.35511 202.046 1.35511C203.546 1.35511 204.671 2.50994 204.671 4.63636ZM213.617 9H214.934V5.69744H216.724C216.753 5.69744 216.779 5.69744 216.809 5.69744L218.581 9H220.081L218.147 5.46733C219.216 5.07102 219.749 4.1804 219.749 3.00852C219.749 1.40199 218.752 0.272727 216.728 0.272727H213.617V9ZM214.934 4.56392V1.40199H216.587C217.887 1.40199 218.424 2.01989 218.424 3.00852C218.424 3.9929 217.887 4.56392 216.604 4.56392H214.934ZM227.351 9H228.668V6.28551L229.699 5.10085L232.52 9H234.106L230.573 4.2017L234.093 0.272727H232.435L228.775 4.44034H228.668V0.272727H227.351V9ZM241.32 9H242.637V5.1946H246.344V4.06534H242.637V1.40625H246.732V0.272727H241.32V9ZM254.351 9H259.623V7.86648H255.668V0.272727H254.351V9ZM274.366 4.63636C274.366 1.84517 272.695 0.153409 270.437 0.153409C268.17 0.153409 266.504 1.84517 266.504 4.63636C266.504 7.4233 268.17 9.11932 270.437 9.11932C272.695 9.11932 274.366 7.42756 274.366 4.63636ZM273.062 4.63636C273.062 6.76278 271.937 7.91761 270.437 7.91761C268.933 7.91761 267.812 6.76278 267.812 4.63636C267.812 2.50994 268.933 1.35511 270.437 1.35511C271.937 1.35511 273.062 2.50994 273.062 4.63636ZM283.611 9H284.941L286.777 2.46307H286.845L288.682 9H290.007L292.432 0.272727H291.043L289.347 7.03551H289.266L287.497 0.272727H286.125L284.357 7.03125H284.276L282.575 0.272727H281.191L283.611 9ZM65.8074 28.6364C65.8074 25.8452 64.1369 24.1534 61.8784 24.1534C59.6113 24.1534 57.9451 25.8452 57.9451 28.6364C57.9451 31.4233 59.6113 33.1193 61.8784 33.1193C64.1369 33.1193 65.8074 31.4276 65.8074 28.6364ZM64.5034 28.6364C64.5034 30.7628 63.3784 31.9176 61.8784 31.9176C60.3741 31.9176 59.2534 30.7628 59.2534 28.6364C59.2534 26.5099 60.3741 25.3551 61.8784 25.3551C63.3784 25.3551 64.5034 26.5099 64.5034 28.6364ZM79.0613 24.2727V29.9062C79.0613 31.0909 78.2431 31.9432 76.9135 31.9432C75.5882 31.9432 74.7658 31.0909 74.7658 29.9062V24.2727H73.449V30.0128C73.449 31.8452 74.8212 33.1449 76.9135 33.1449C79.0059 33.1449 80.3823 31.8452 80.3823 30.0128V24.2727H79.0613ZM87.8663 25.4062H90.585V33H91.8975V25.4062H94.6206V24.2727H87.8663V25.4062ZM118.87 28.6364C118.87 25.8452 117.199 24.1534 114.941 24.1534C112.674 24.1534 111.008 25.8452 111.008 28.6364C111.008 31.4233 112.674 33.1193 114.941 33.1193C117.199 33.1193 118.87 31.4276 118.87 28.6364ZM117.566 28.6364C117.566 30.7628 116.441 31.9176 114.941 31.9176C113.437 31.9176 112.316 30.7628 112.316 28.6364C112.316 26.5099 113.437 25.3551 114.941 25.3551C116.441 25.3551 117.566 26.5099 117.566 28.6364ZM126.512 33H127.828V29.1946H131.536V28.0653H127.828V25.4062H131.923V24.2727H126.512V33ZM148.288 25.4062H151.007V33H152.319V25.4062H155.042V24.2727H148.288V25.4062ZM162.535 33H163.852V29.1946H168.203V33H169.524V24.2727H168.203V28.0653H163.852V24.2727H162.535V33ZM177.441 33H182.964V31.8665H178.758V29.1946H182.627V28.0653H178.758V25.4062H182.913V24.2727H177.441V33ZM199.847 33H203.193C205.221 33 206.137 31.9901 206.137 30.652C206.137 29.3011 205.191 28.5384 204.326 28.4915V28.4062C205.127 28.2017 205.796 27.6562 205.796 26.5653C205.796 25.2741 204.901 24.2727 203.044 24.2727H199.847V33ZM201.164 31.8707V29.0753H203.112C204.169 29.0753 204.829 29.7571 204.829 30.5881C204.829 31.321 204.33 31.8707 203.065 31.8707H201.164ZM201.164 28.0483V25.3935H202.963C204.007 25.3935 204.505 25.9432 204.505 26.6676C204.505 27.5114 203.815 28.0483 202.928 28.0483H201.164ZM221.28 28.6364C221.28 25.8452 219.61 24.1534 217.351 24.1534C215.084 24.1534 213.418 25.8452 213.418 28.6364C213.418 31.4233 215.084 33.1193 217.351 33.1193C219.61 33.1193 221.28 31.4276 221.28 28.6364ZM219.976 28.6364C219.976 30.7628 218.851 31.9176 217.351 31.9176C215.847 31.9176 214.726 30.7628 214.726 28.6364C214.726 26.5099 215.847 25.3551 217.351 25.3551C218.851 25.3551 219.976 26.5099 219.976 28.6364ZM229.615 24.2727H228.09L230.855 28.6364L228.073 33H229.607L231.703 29.6335H231.771L233.868 33H235.402L232.666 28.6364L235.385 24.2727H233.86L231.771 27.6861H231.703L229.615 24.2727Z" fill="#4C84FF"/>
</svg>
