<svg width="227" height="196" viewBox="0 0 227 196" fill="none" xmlns="http://www.w3.org/2000/svg">
<g clip-path="url(#clip0_2_616)">
<path d="M123.905 54.5839C135.449 54.5839 144.807 45.2212 144.807 33.6718C144.807 22.1224 135.449 12.7598 123.905 12.7598C112.362 12.7598 103.004 22.1224 103.004 33.6718C103.004 45.2212 112.362 54.5839 123.905 54.5839Z" fill="#A0616A"/>
<path d="M108.305 44.1279C108.305 44.1279 112.243 73.8291 106.185 77.1629C100.126 80.4967 142.232 80.7998 142.232 80.7998C142.232 80.7998 132.842 55.0386 137.083 47.1586L108.305 44.1279Z" fill="#A0616A"/>
<path d="M172.979 80.9499L169.477 96.9035L162.072 130.656L161.851 132.505L159.295 153.904L157.596 168.12L156.456 177.67C149.526 181.233 144.504 183.693 144.504 183.693C144.504 183.693 144.072 181.526 143.375 178.753C138.512 180.212 129.513 182.632 121.887 183.116C124.664 186.213 125.94 189.122 124.209 191.269C118.985 197.741 97.4168 184.182 89.8731 179.126C89.6975 180.336 89.6309 181.56 89.6742 182.783L83.9013 178.341L84.4726 168.12L85.4362 150.827L86.6471 129.141C86.2652 128.212 85.9452 127.259 85.6892 126.288C83.9212 119.998 81.7752 107.437 80.1295 96.9035C78.8049 88.4262 77.8101 81.2627 77.5998 79.7384C77.5713 79.5394 77.5571 79.437 77.5571 79.437L109.514 65.3091C111.785 70.5786 122.39 72.1626 122.39 72.1626C131.176 71.5569 138.063 66.9215 138.063 66.9215L172.979 80.9499Z" fill="#D0CDE1"/>
<path d="M146.928 177.634C146.928 177.634 145.575 178.098 143.375 178.755C138.512 180.213 129.513 182.633 121.887 183.117C115.321 183.538 109.772 182.525 108.758 178.24C108.323 176.397 108.94 174.881 110.284 173.636C114.298 169.913 124.78 168.579 133.094 168.122C135.442 167.994 137.614 167.934 139.421 167.911C142.491 167.871 144.503 167.934 144.503 167.934L144.552 168.122L146.928 177.634Z" fill="#A0616A"/>
<path d="M124.209 191.269C118.985 197.742 97.4165 184.183 89.8729 179.126C88.23 178.026 87.2522 177.329 87.2522 177.329L94.1535 168.121L96.3393 165.206C96.3393 165.206 98.2948 166.244 101.186 167.933C101.291 167.996 101.396 168.058 101.504 168.121C103.997 169.585 107.126 171.499 110.284 173.635C114.641 176.584 119.047 179.948 121.887 183.116C124.664 186.213 125.94 189.122 124.209 191.269Z" fill="#A0616A"/>
<path d="M195.698 154.294C193.569 156.603 188.294 160.081 181.898 163.846C179.519 165.245 176.987 166.687 174.403 168.12C168.238 171.541 161.783 174.931 156.456 177.67C149.526 181.233 144.504 183.693 144.504 183.693C144.504 183.693 144.072 181.526 143.375 178.753C142.443 175.042 141.039 170.245 139.575 168.12C139.524 168.046 139.473 167.978 139.422 167.91C138.995 167.35 138.566 167.022 138.143 167.022L159.296 153.904L168.437 148.234L161.851 132.505L153.591 112.774L158.576 96.9033L163.588 80.9497H172.979C172.979 80.9497 176.088 87.7407 180.065 97.2105C180.659 98.6267 181.273 100.103 181.898 101.627C190.079 121.533 200.277 149.331 195.698 154.294Z" fill="#D0CDE1"/>
<path d="M188.635 187.799V189.525C188.636 189.999 188.548 190.469 188.376 190.91C188.3 191.107 188.207 191.297 188.1 191.479C187.762 192.048 187.281 192.519 186.705 192.846C186.13 193.173 185.479 193.345 184.817 193.344H57.8909C57.2291 193.345 56.5785 193.173 56.003 192.846C55.4274 192.519 54.9467 192.048 54.608 191.479C54.5008 191.297 54.4086 191.107 54.3323 190.91C54.1604 190.469 54.0726 189.999 54.0736 189.525V187.799C54.0735 187.297 54.1721 186.801 54.3639 186.337C54.5557 185.874 54.8369 185.453 55.1914 185.098C55.5459 184.743 55.9668 184.462 56.4299 184.27C56.8931 184.078 57.3896 183.98 57.8909 183.98H65.2072V183.175C65.2072 183.154 65.2113 183.133 65.2193 183.114C65.2273 183.095 65.239 183.077 65.2538 183.062C65.2685 183.047 65.2861 183.036 65.3054 183.028C65.3248 183.02 65.3455 183.016 65.3664 183.016H69.1837C69.2046 183.016 69.2253 183.02 69.2447 183.028C69.264 183.036 69.2815 183.047 69.2963 183.062C69.3111 183.077 69.3228 183.095 69.3308 183.114C69.3388 183.133 69.3429 183.154 69.3429 183.175V183.98H71.7276V183.175C71.7276 183.154 71.7317 183.133 71.7397 183.114C71.7476 183.095 71.7594 183.077 71.7742 183.062C71.7889 183.047 71.8065 183.036 71.8258 183.028C71.8452 183.02 71.8659 183.016 71.8868 183.016H75.7041C75.725 183.016 75.7457 183.02 75.7651 183.028C75.7844 183.036 75.8019 183.047 75.8167 183.062C75.8315 183.077 75.8432 183.095 75.8512 183.114C75.8592 183.133 75.8633 183.154 75.8633 183.175V183.98H78.2509V183.175C78.2508 183.154 78.2549 183.133 78.2629 183.114C78.2709 183.095 78.2826 183.077 78.2974 183.062C78.3122 183.047 78.3298 183.036 78.3491 183.028C78.3684 183.02 78.3891 183.016 78.41 183.016H82.2274C82.2483 183.016 82.269 183.02 82.2883 183.028C82.3076 183.036 82.3252 183.047 82.34 183.062C82.3548 183.077 82.3665 183.095 82.3745 183.114C82.3825 183.133 82.3866 183.154 82.3865 183.175V183.98H84.7713V183.175C84.7713 183.154 84.7754 183.133 84.7833 183.114C84.7913 183.095 84.803 183.077 84.8178 183.062C84.8326 183.047 84.8502 183.036 84.8695 183.028C84.8888 183.02 84.9096 183.016 84.9305 183.016H88.7478C88.7687 183.016 88.7894 183.02 88.8087 183.028C88.8281 183.036 88.8456 183.047 88.8604 183.062C88.8752 183.077 88.8869 183.095 88.8949 183.114C88.9029 183.133 88.907 183.154 88.9069 183.175V183.98H91.2917V183.175C91.2917 183.154 91.2958 183.133 91.3037 183.114C91.3117 183.095 91.3235 183.077 91.3383 183.062C91.353 183.047 91.3706 183.036 91.3899 183.028C91.4092 183.02 91.43 183.016 91.4509 183.016H95.2682C95.2891 183.016 95.3098 183.02 95.3292 183.028C95.3485 183.036 95.366 183.047 95.3808 183.062C95.3956 183.077 95.4073 183.095 95.4153 183.114C95.4233 183.133 95.4274 183.154 95.4274 183.175V183.98H97.815V183.175C97.8149 183.154 97.819 183.133 97.827 183.114C97.835 183.095 97.8467 183.077 97.8615 183.062C97.8763 183.047 97.8939 183.036 97.9132 183.028C97.9325 183.02 97.9532 183.016 97.9741 183.016H101.791C101.812 183.016 101.833 183.02 101.852 183.028C101.872 183.036 101.889 183.047 101.904 183.062C101.919 183.077 101.931 183.095 101.939 183.114C101.947 183.133 101.951 183.154 101.951 183.175V183.98H104.335V183.175C104.335 183.154 104.339 183.133 104.347 183.114C104.355 183.095 104.367 183.077 104.382 183.062C104.397 183.047 104.414 183.036 104.434 183.028C104.453 183.02 104.474 183.016 104.495 183.016H134.396C134.417 183.016 134.438 183.02 134.457 183.028C134.477 183.036 134.494 183.047 134.509 183.062C134.524 183.077 134.536 183.095 134.543 183.114C134.551 183.133 134.556 183.154 134.556 183.175V183.98H136.943V183.175C136.943 183.154 136.947 183.133 136.955 183.114C136.963 183.095 136.975 183.077 136.99 183.062C137.004 183.047 137.022 183.036 137.041 183.028C137.061 183.02 137.081 183.016 137.102 183.016H140.92C140.962 183.016 141.002 183.033 141.032 183.063C141.062 183.092 141.078 183.133 141.079 183.175V183.98H143.464V183.175C143.464 183.154 143.468 183.133 143.476 183.114C143.484 183.095 143.495 183.077 143.51 183.062C143.525 183.047 143.542 183.036 143.562 183.028C143.581 183.02 143.602 183.016 143.623 183.016H147.44C147.461 183.016 147.482 183.02 147.501 183.028C147.52 183.036 147.538 183.047 147.553 183.062C147.567 183.077 147.579 183.095 147.587 183.114C147.595 183.133 147.599 183.154 147.599 183.175V183.98H149.984V183.175C149.984 183.154 149.988 183.133 149.996 183.114C150.004 183.095 150.016 183.077 150.031 183.062C150.045 183.047 150.063 183.036 150.082 183.028C150.102 183.02 150.122 183.016 150.143 183.016H153.96C153.981 183.016 154.002 183.02 154.021 183.028C154.041 183.036 154.058 183.047 154.073 183.062C154.088 183.077 154.1 183.095 154.108 183.114C154.116 183.133 154.12 183.154 154.12 183.175V183.98H156.507V183.175C156.507 183.154 156.511 183.133 156.519 183.114C156.527 183.095 156.539 183.077 156.554 183.062C156.569 183.047 156.586 183.036 156.605 183.028C156.625 183.02 156.646 183.016 156.666 183.016H160.484C160.526 183.016 160.565 183.033 160.595 183.063C160.624 183.093 160.64 183.133 160.64 183.175V183.98H163.028V183.175C163.028 183.154 163.032 183.133 163.04 183.114C163.048 183.095 163.059 183.077 163.074 183.062C163.089 183.047 163.107 183.036 163.126 183.028C163.145 183.02 163.166 183.016 163.187 183.016H167.004C167.025 183.016 167.046 183.02 167.065 183.028C167.084 183.036 167.102 183.047 167.117 183.062C167.132 183.077 167.143 183.095 167.151 183.114C167.159 183.133 167.163 183.154 167.163 183.175V183.98H169.548V183.175C169.548 183.154 169.552 183.133 169.56 183.114C169.568 183.095 169.58 183.077 169.595 183.062C169.609 183.047 169.627 183.036 169.646 183.028C169.666 183.02 169.686 183.016 169.707 183.016H173.525C173.545 183.016 173.566 183.02 173.586 183.028C173.605 183.036 173.622 183.047 173.637 183.062C173.652 183.077 173.664 183.095 173.672 183.114C173.68 183.133 173.684 183.154 173.684 183.175V183.98H184.817C185.319 183.98 185.815 184.078 186.278 184.27C186.742 184.462 187.162 184.743 187.517 185.098C187.871 185.453 188.153 185.874 188.344 186.337C188.536 186.801 188.635 187.297 188.635 187.799Z" fill="#3F3D56"/>
<path d="M225.543 190.911H17.1965V191.479H225.543V190.911Z" fill="#3F3D56"/>
<path d="M215.01 188.038H207.052V196H215.01V188.038Z" fill="#D0CDE1"/>
<path d="M30.8245 188.038H22.8658V196H30.8245V188.038Z" fill="#D0CDE1"/>
<path d="M210.18 181.781V191.45H219.844V181.781H210.18ZM219.423 191.029H210.597V182.202H219.423V191.029Z" fill="#3F3D56"/>
<path d="M25.9934 181.781V191.45H35.6575V181.781H25.9934ZM35.2368 191.029H26.4112V182.202H35.2368V191.029Z" fill="#3F3D56"/>
<path d="M42.8038 170.557C43.069 179.643 37.7628 182.972 31.1037 183.167C30.949 183.171 30.795 183.174 30.6417 183.175C30.3329 183.178 30.0271 183.172 29.7243 183.16C23.7017 182.91 18.9346 179.711 18.6879 171.261C18.4327 162.517 29.2811 151.155 30.0951 150.314L30.0965 150.314C30.1274 150.282 30.1433 150.266 30.1433 150.266C30.1433 150.266 42.5386 161.472 42.8038 170.557Z" fill="#D0CDE1"/>
<path d="M30.6245 181.79L34.8547 175.496L30.6332 182.467L30.642 183.175C30.3332 183.178 30.0274 183.172 29.7246 183.16L29.9344 174.056L29.9286 173.986L29.9364 173.973L29.9564 173.112L25.324 166.383L29.951 172.468L29.9674 172.65L30.1259 165.772L26.1247 158.796L30.1373 164.564L30.0954 150.315L30.0955 150.267L30.0968 150.314L30.3624 161.544L34.0091 156.982L30.3744 162.512L30.454 168.664L33.8096 162.66L30.4663 169.568L30.5106 172.989L35.3906 164.625L30.5254 174.183L30.6245 181.79Z" fill="#3F3D56"/>
<path d="M226.99 170.557C227.256 179.643 221.949 182.972 215.29 183.167C215.136 183.171 214.982 183.174 214.828 183.175C214.519 183.178 214.214 183.172 213.911 183.16C207.888 182.91 203.121 179.711 202.874 171.261C202.619 162.517 213.468 151.155 214.282 150.314L214.283 150.314C214.314 150.282 214.33 150.266 214.33 150.266C214.33 150.266 226.725 161.472 226.99 170.557Z" fill="#D0CDE1"/>
<path d="M214.81 181.79L219.04 175.496L214.819 182.467L214.828 183.175C214.519 183.178 214.213 183.172 213.91 183.16L214.12 174.056L214.114 173.986L214.122 173.973L214.142 173.112L209.51 166.383L214.137 172.468L214.153 172.65L214.312 165.772L210.31 158.796L214.323 164.564L214.281 150.315L214.281 150.267L214.283 150.314L214.548 161.544L218.195 156.982L214.56 162.512L214.64 168.664L217.995 162.66L214.652 169.568L214.696 172.989L219.576 164.625L214.711 174.183L214.81 181.79Z" fill="#3F3D56"/>
<path d="M101.186 167.933C100.414 167.93 99.644 167.992 98.8833 168.12C92.3487 169.244 90.4215 175.161 89.873 179.126C89.6973 180.336 89.6307 181.56 89.674 182.783L83.9011 178.341L81.7978 176.723C76.7355 174.957 72.2246 171.82 68.3135 168.12C64.9206 164.854 61.877 161.243 59.2321 157.345C56.5977 153.504 54.2493 149.474 52.2058 145.287C51.6356 144.119 51.3291 142.84 51.3079 141.54C51.2868 140.24 51.5516 138.952 52.0835 137.766L59.2321 121.826L69.6807 98.53C69.7574 97.9755 69.8418 97.4333 69.9337 96.9034C72.0058 85.0163 77.5569 79.7383 77.5569 79.7383H81.7977L84.6344 96.9034L88.159 118.229L85.689 126.288L79.9815 144.901L85.436 150.827L101.186 167.933Z" fill="#D0CDE1"/>
<path d="M105.985 118.246L109.611 122.478C110.958 122.221 112.364 121.919 113.813 121.58L112.772 118.246L115.318 121.218C130.666 117.441 149.69 110.099 149.69 110.099C149.69 110.099 129.152 111.605 113.817 108.253C107.032 106.77 100.051 110.135 97.2666 116.501C95.6483 120.201 95.9024 123.407 101.642 123.407C103.582 123.373 105.516 123.191 107.427 122.862L105.985 118.246Z" fill="#0057FF"/>
<path d="M178.414 115.104H131.105V114.128H109.653V115.104H62.1486C61.2999 115.104 60.4859 115.441 59.8858 116.041C59.2856 116.642 58.9485 117.456 58.9485 118.305V183.118C58.9485 183.968 59.2856 184.782 59.8858 185.382C60.4859 185.983 61.2999 186.32 62.1486 186.32H178.414C179.263 186.32 180.077 185.983 180.677 185.382C181.277 184.782 181.614 183.968 181.614 183.118V118.305C181.614 117.885 181.532 117.468 181.371 117.08C181.21 116.692 180.974 116.339 180.677 116.041C180.38 115.744 180.027 115.508 179.639 115.347C179.251 115.186 178.834 115.104 178.414 115.104Z" fill="#3F3D56"/>
<path d="M120.375 144.841C124.299 144.841 127.481 141.658 127.481 137.732C127.481 133.805 124.299 130.622 120.375 130.622C116.45 130.622 113.269 133.805 113.269 137.732C113.269 141.658 116.45 144.841 120.375 144.841Z" stroke="#D0CDE1" stroke-width="2" stroke-miterlimit="10"/>
<path d="M118.101 147.401C122.026 147.401 125.207 144.218 125.207 140.292C125.207 136.365 122.026 133.182 118.101 133.182C114.177 133.182 110.995 136.365 110.995 140.292C110.995 144.218 114.177 147.401 118.101 147.401Z" fill="#D0CDE1"/>
<path d="M26.8836 65.4399C39.3385 65.4399 49.4351 55.3382 49.4351 42.8772C49.4351 30.4161 39.3385 20.3145 26.8836 20.3145C14.4287 20.3145 4.33203 30.4161 4.33203 42.8772C4.33203 55.3382 14.4287 65.4399 26.8836 65.4399Z" fill="#0057FF"/>
<path d="M34.7425 16.0645C32.7006 15.8047 30.634 15.8047 28.5921 16.0645C24.043 16.6621 19.7608 18.5528 16.2535 21.5122C12.7462 24.4716 10.1611 28.3756 8.80486 32.7609C8.18805 34.7594 7.83875 36.8308 7.7661 38.9212C7.75587 39.2118 7.74902 39.5058 7.74902 39.7998C7.75536 46.1445 10.2774 52.2275 14.7615 56.7139C19.2457 61.2003 25.3257 63.7236 31.6673 63.7299C32.1764 63.7299 32.6856 63.7128 33.1879 63.682C34.3669 63.608 35.5388 63.4458 36.6936 63.1966C42.2083 62.0101 47.1266 58.912 50.5797 54.4494C54.0328 49.9868 55.7986 44.4469 55.5651 38.8082C55.3317 33.1694 53.1141 27.7945 49.304 23.6329C45.4939 19.4713 40.3365 16.7907 34.7425 16.0645H34.7425ZM39.1537 61.8087H39.1503C37.224 62.4663 35.219 62.8652 33.1878 62.9949C32.6855 63.0291 32.1764 63.0462 31.6673 63.0462C25.5073 63.0386 19.6018 60.587 15.2461 56.2291C10.8903 51.8712 8.43992 45.9628 8.43238 39.7998C8.43238 39.5058 8.43922 39.2118 8.44946 38.9212C8.68436 32.915 11.2323 27.2325 15.56 23.0633C19.8876 18.8941 25.6595 16.5613 31.6673 16.5533C37.172 16.5537 42.4977 18.5092 46.6958 22.0715C50.8939 25.6338 53.6915 30.5715 54.5904 36.005C55.4892 41.4385 54.4308 47.0147 51.6038 51.7403C48.7768 56.4659 44.3647 60.0339 39.1537 61.8087H39.1537Z" fill="#3F3D56"/>
<path d="M64.2377 62.6885H0V63.3722H64.2377V62.6885Z" fill="#3F3D56"/>
<path d="M32.0082 56.8926H31.3248V61.6786H32.0082V56.8926Z" fill="#3F3D56"/>
<path d="M15.9621 55.0302L16.4453 55.5137L19.8279 52.1294L19.3446 51.646L15.9621 55.0302Z" fill="#3F3D56"/>
<path d="M43.9891 51.6454L43.5059 52.1289L46.8884 55.5131L47.3717 55.0297L43.9891 51.6454Z" fill="#3F3D56"/>
<path d="M48.751 39.4569V40.1406H53.5346V39.4569H48.751Z" fill="#3F3D56"/>
<path d="M9.79883 39.4569V40.1406H14.5825V39.4569H9.79883Z" fill="#3F3D56"/>
<path d="M32.6918 38.4327C32.3961 38.2108 32.0364 38.0908 31.6667 38.0908C31.2971 38.0908 30.9374 38.2108 30.6417 38.4327C30.4392 38.5865 30.2725 38.7825 30.1531 39.007C30.0017 39.2961 29.9362 39.6226 29.9644 39.9477C29.9925 40.2729 30.1131 40.5832 30.3119 40.842C30.5107 41.1007 30.7794 41.2972 31.0863 41.408C31.3931 41.5189 31.7252 41.5395 32.0434 41.4675C32.3616 41.3956 32.6526 41.234 32.8819 41.0018C33.1112 40.7697 33.2693 40.4767 33.3375 40.1575C33.4057 39.8384 33.3811 39.5063 33.2667 39.2007C33.1523 38.895 32.9528 38.6285 32.6918 38.4327H32.6918ZM31.6667 40.8257C31.3951 40.8249 31.1349 40.7166 30.9428 40.5244C30.7507 40.3323 30.6425 40.0719 30.6417 39.8001C30.643 39.5927 30.7061 39.3904 30.8228 39.219C30.9229 39.0739 31.0587 38.9571 31.2172 38.8799C31.3756 38.8028 31.5512 38.7678 31.7271 38.7784C31.903 38.789 32.0732 38.8448 32.2212 38.9405C32.3692 39.0362 32.49 39.1684 32.572 39.3245C32.654 39.4805 32.6943 39.6551 32.6891 39.8313C32.6839 40.0075 32.6334 40.1794 32.5423 40.3304C32.4513 40.4813 32.3229 40.6062 32.1695 40.693C32.0161 40.7798 31.843 40.8255 31.6667 40.8257V40.8257Z" fill="#3F3D56"/>
<path d="M32.6919 26.8081H30.6417V38.4313H32.6919V26.8081Z" fill="#3F3D56"/>
<path d="M43.506 27.4716L43.9893 27.9551L47.3718 24.5708L46.8886 24.0874L43.506 27.4716Z" fill="#3F3D56"/>
<path d="M16.4451 24.0868L15.9619 24.5703L19.3445 27.9546L19.8277 27.4711L16.4451 24.0868Z" fill="#3F3D56"/>
<path d="M32.0082 17.9209H31.3248V22.7069H32.0082V17.9209Z" fill="#3F3D56"/>
<path d="M34.742 10.0576H28.5916V16.2111H34.742V10.0576Z" fill="#3F3D56"/>
<path d="M31.6671 11.0836C36.1962 11.0836 39.8677 9.78261 39.8677 8.17778C39.8677 6.57295 36.1962 5.27197 31.6671 5.27197C27.1381 5.27197 23.4666 6.57295 23.4666 8.17778C23.4666 9.78261 27.1381 11.0836 31.6671 11.0836Z" fill="#3F3D56"/>
<path d="M106.517 13.891L102.609 12.3256C102.609 12.3256 110.781 3.3248 122.15 4.10751L118.952 0.585426C118.952 0.585426 126.768 -2.54525 133.874 5.67283C137.609 9.99289 141.931 15.0709 144.625 20.7912H148.811L147.064 24.6394L153.178 28.4875L146.903 27.7963C147.276 29.9036 147.334 32.055 147.073 34.1792C146.804 36.3041 145.72 38.2412 144.05 39.5818C144.05 39.5818 139.203 29.5445 139.203 27.9791V31.8925C139.203 31.8925 135.295 28.3705 135.295 26.0225L133.164 28.7618L132.098 24.4571L118.952 28.7618L121.084 25.2398L112.912 26.4138L116.11 22.109C116.11 22.109 106.873 27.1964 106.517 31.5012C106.162 35.8059 103.458 39.8849 103.458 39.8849C103.458 39.8849 96.2142 19.761 106.517 13.891Z" fill="#2F2E41"/>
</g>
<defs>
<clipPath id="clip0_2_616">
<rect width="227" height="196" fill="white"/>
</clipPath>
</defs>
</svg>
